<svg width="125" height="125" viewBox="0 0 125 125" fill="none" xmlns="http://www.w3.org/2000/svg">
<g filter="url(#filter0_d_271_124)">
<path d="M46.1255 28.0618C42.9736 28.0618 33.471 31.9167 31.7661 32.6871C30.0613 33.4575 28.169 35.8625 26.0218 39.8317C23.8717 43.8009 22.1463 48.4409 19.343 55.2661C16.5426 62.0914 15.8894 75.2497 15.9831 79.2658C16.0769 83.2819 16.5367 86.4191 20.6524 88.7948C24.7651 91.1675 28.4033 93.6516 32.2319 95.1455C36.0634 96.6394 38.6763 97.7145 40.4515 96.2205C42.2266 94.7266 43.3954 92.1107 43.3954 92.1107C43.3954 92.1107 45.0769 89.7761 41.9015 88.3759C38.7261 86.9728 37.1385 85.9915 37.2761 84.5444C37.4167 83.0973 37.6482 82.3035 38.442 82.4909C39.2358 82.6784 41.1077 86.0383 48.2991 87.5791C55.4905 89.1199 62.5003 88.8885 62.5003 88.8885C62.5003 88.8885 69.513 89.1229 76.7044 87.5791C83.8958 86.0383 85.7647 82.6784 86.5586 82.4909C87.3524 82.3035 87.5838 83.0973 87.7244 84.5415C87.865 85.9915 86.2774 86.9728 83.102 88.3759C79.9267 89.7761 81.6081 92.1107 81.6081 92.1107C81.6081 92.1107 82.7769 94.7237 84.552 96.2205C86.3242 97.7145 88.9401 96.6394 92.7687 95.1455C96.5973 93.6516 100.238 91.1704 104.351 88.7948C108.467 86.4191 108.927 83.2819 109.02 79.2658C109.114 75.2527 108.461 62.0914 105.658 55.2661C102.857 48.4409 101.129 43.8009 98.9788 39.8317C96.8345 35.8625 94.9393 33.4575 93.2374 32.6842C91.5325 31.9167 82.027 28.0618 78.875 28.0618C75.7231 28.0618 74.7916 30.2587 74.7916 30.2587L73.6931 32.6871C73.6931 32.6871 66.3113 31.284 62.5501 31.2811C58.7889 31.2811 51.3104 32.6871 51.3104 32.6871L50.2119 30.2558C50.2119 30.2558 49.2804 28.0618 46.1255 28.0618ZM46.4683 57.2024H46.5854C51.1815 57.2024 54.9046 61.2243 54.9046 66.1836C54.9046 71.1458 51.1815 75.1648 46.5854 75.1648C41.9894 75.1648 38.2662 71.1458 38.2662 66.1836C38.2633 61.2712 41.9191 57.2697 46.4683 57.2024ZM78.4181 57.2024H78.5352C83.0844 57.2697 86.7373 61.2741 86.7373 66.1836C86.7373 71.1458 83.0141 75.1648 78.4181 75.1648C73.8191 75.1648 70.0989 71.1458 70.0989 66.1836C70.0989 61.2243 73.8191 57.2024 78.4181 57.2024Z" fill="#1C1C1C"/>
</g>
<g filter="url(#filter1_d_271_124)">
<path d="M46.5848 57.2024H46.4676C41.9185 57.2698 38.2627 61.2712 38.2656 66.1836C38.2656 71.1458 41.9888 75.1648 46.5848 75.1648C51.1809 75.1648 54.904 71.1458 54.904 66.1836C54.904 61.2243 51.1809 57.2024 46.5848 57.2024Z" fill="#F1F1F1"/>
<path d="M78.5346 57.2024H78.4174C73.8185 57.2024 70.0983 61.2243 70.0983 66.1836C70.0983 71.1458 73.8185 75.1648 78.4174 75.1648C83.0135 75.1648 86.7366 71.1458 86.7366 66.1836C86.7366 61.2741 83.0838 57.2698 78.5346 57.2024Z" fill="#F1F1F1"/>
</g>
<defs>
<filter id="filter0_d_271_124" x="0.974609" y="13.0618" width="123.055" height="98.8762" filterUnits="userSpaceOnUse" color-interpolation-filters="sRGB">
<feFlood flood-opacity="0" result="BackgroundImageFix"/>
<feColorMatrix in="SourceAlpha" type="matrix" values="0 0 0 0 0 0 0 0 0 0 0 0 0 0 0 0 0 0 127 0" result="hardAlpha"/>
<feOffset/>
<feGaussianBlur stdDeviation="7.5"/>
<feComposite in2="hardAlpha" operator="out"/>
<feColorMatrix type="matrix" values="0 0 0 0 0 0 0 0 0 0 0 0 0 0 0 0 0 0 0.25 0"/>
<feBlend mode="normal" in2="BackgroundImageFix" result="effect1_dropShadow_271_124"/>
<feBlend mode="normal" in="SourceGraphic" in2="effect1_dropShadow_271_124" result="shape"/>
</filter>
<filter id="filter1_d_271_124" x="31.2656" y="50.2024" width="62.4707" height="31.9624" filterUnits="userSpaceOnUse" color-interpolation-filters="sRGB">
<feFlood flood-opacity="0" result="BackgroundImageFix"/>
<feColorMatrix in="SourceAlpha" type="matrix" values="0 0 0 0 0 0 0 0 0 0 0 0 0 0 0 0 0 0 127 0" result="hardAlpha"/>
<feOffset/>
<feGaussianBlur stdDeviation="3.5"/>
<feComposite in2="hardAlpha" operator="out"/>
<feColorMatrix type="matrix" values="0 0 0 0 0.654167 0 0 0 0 0.654167 0 0 0 0 0.654167 0 0 0 0.64 0"/>
<feBlend mode="normal" in2="BackgroundImageFix" result="effect1_dropShadow_271_124"/>
<feBlend mode="normal" in="SourceGraphic" in2="effect1_dropShadow_271_124" result="shape"/>
</filter>
</defs>
</svg>
